# xmcd CD database file
#
# Track frame offsets:
#	150
#	12534
#	25715
#	38332
#	49695
#	64757
#	81843
#	97797
#	108912
#
# Disc length: 1597 seconds
#
# Revision: 2
# Processed by: cddbd v1.4PL0 Copyright (c) Steve Scherf et al.
# Submitted via: CDex 1.40Release
#
DISCID=5d063b09
DTITLE=Johnny Bush - Green Snakes (Bonus CD)
DYEAR=1900
DGENRE=Country
TTITLE0=If You Stand To Close to Her
TTITLE1=The Living Dead
TTITLE2=The Girl You Used to Be
TTITLE3=If You Won't Think of You (Think Of Me)
TTITLE4=An Eye For An Eye
TTITLE5=The Blues Are Coming Early Today
TTITLE6=I Die A Thousand Times
TTITLE7=I Could Be You
TTITLE8=Between Heartbreak And Dawn
EXTD=ID3G: 2
EXTT0=
EXTT1=
EXTT2=
EXTT3=
EXTT4=
EXTT5=
EXTT6=
EXTT7=
EXTT8=
PLAYORDER=
